<?xml version="1.0" encoding="UTF-8"?>
<svg id="Layer_1" data-name="Layer 1" xmlns="http://www.w3.org/2000/svg" viewBox="0 0 72.41 15.73">
  <defs>
    <style>
      .cls-1 {
        fill: #fbfbfd;
      }

      .cls-2 {
        fill: none;
        stroke: #007ee5;
        stroke-miterlimit: 10;
      }

      .cls-3 {
        fill: #007ee5;
      }
    </style>
  </defs>
  <g>
    <path class="cls-1" d="m17.84,3.52c.19-.33.44-.58.76-.76.32-.18.68-.27,1.08-.27.47,0,.88.12,1.23.36.35.24.6.57.74,1h-.97c-.1-.2-.23-.35-.4-.45-.17-.1-.38-.15-.6-.15-.24,0-.46.06-.65.17-.19.11-.34.27-.44.48s-.16.45-.16.73.05.52.16.73.25.37.44.49c.19.11.41.17.65.17.23,0,.43-.05.6-.15.17-.1.31-.25.4-.45h.97c-.14.43-.38.76-.73,1-.35.24-.76.36-1.23.36-.4,0-.76-.09-1.08-.27-.32-.18-.58-.44-.76-.76-.19-.32-.28-.69-.28-1.1s.09-.78.28-1.11Z"/>
    <path class="cls-1" d="m22.35,4.15c.13-.26.32-.46.55-.6s.49-.21.77-.21c.25,0,.47.05.65.15s.33.23.45.38v-.47h.85v3.32h-.85v-.49c-.11.16-.26.28-.45.39-.19.1-.41.15-.66.15-.28,0-.54-.07-.77-.22s-.41-.35-.55-.61c-.13-.26-.2-.56-.2-.9s.07-.63.2-.89Zm2.29.38c-.08-.15-.19-.26-.32-.34-.14-.08-.28-.12-.44-.12s-.3.04-.43.11c-.13.08-.24.19-.32.33-.08.15-.12.32-.12.52s.04.38.12.52c.08.15.19.27.32.34.13.08.28.12.43.12s.3-.04.44-.12c.14-.08.24-.19.32-.34.08-.15.12-.32.12-.52s-.04-.38-.12-.52Z"/>
    <path class="cls-1" d="m27.28,2.28v4.44h-.84V2.28h.84Z"/>
    <path class="cls-1" d="m28.94,2.28v4.44h-.84V2.28h.84Z"/>
    <path class="cls-1" d="m29.83,2.86c-.1-.09-.15-.21-.15-.35s.05-.26.15-.35c.1-.09.22-.14.37-.14s.27.05.37.14c.1.09.15.21.15.35s-.05.26-.15.35c-.1.09-.22.14-.37.14s-.27-.05-.37-.14Zm.78.54v3.32h-.84v-3.32h.84Z"/>
    <path class="cls-1" d="m31.98,6.63c-.22-.1-.39-.23-.51-.4s-.19-.35-.21-.56h.85c.02.13.08.23.19.32s.25.13.41.13.28-.03.38-.1c.09-.06.13-.15.13-.25,0-.11-.06-.19-.17-.24-.11-.05-.28-.11-.52-.18-.25-.06-.45-.12-.61-.19-.16-.06-.29-.16-.41-.29-.11-.13-.17-.31-.17-.53,0-.18.05-.35.16-.5.11-.15.26-.27.46-.36.2-.09.43-.13.7-.13.4,0,.71.1.95.3.24.2.37.46.39.8h-.8c-.01-.13-.07-.24-.17-.32-.1-.08-.23-.12-.39-.12-.15,0-.27.03-.35.08s-.12.13-.12.23c0,.11.06.2.17.25.11.06.29.12.52.18.24.06.44.12.59.19.16.06.29.16.4.3.11.13.17.31.18.53,0,.19-.05.36-.16.52-.11.15-.26.27-.46.36-.2.09-.43.13-.69.13s-.52-.05-.73-.15Z"/>
    <path class="cls-1" d="m36,3.49c.19-.1.41-.15.65-.15.28,0,.54.07.77.21s.41.34.55.6c.13.26.2.56.2.9s-.07.64-.2.9c-.13.26-.32.46-.55.61s-.49.22-.77.22c-.25,0-.46-.05-.65-.15-.19-.1-.34-.23-.45-.38v.47h-.84V2.28h.84v1.6c.11-.16.26-.29.45-.39Zm1.19,1.04c-.08-.15-.19-.26-.32-.33-.13-.08-.28-.11-.44-.11s-.29.04-.43.12c-.13.08-.24.19-.32.34s-.12.32-.12.52.04.37.12.52.19.26.32.34c.13.08.28.12.43.12s.3-.04.44-.12c.13-.08.24-.19.32-.34.08-.15.12-.32.12-.53s-.04-.37-.12-.52Z"/>
    <path class="cls-1" d="m41.92,3.4v3.32h-.85v-.42c-.11.14-.25.26-.42.34-.17.08-.36.12-.57.12-.26,0-.49-.05-.69-.17-.2-.11-.36-.27-.47-.49-.11-.21-.17-.47-.17-.77v-1.95h.84v1.83c0,.26.07.47.2.61.13.14.31.21.54.21s.41-.07.55-.21c.13-.14.2-.35.2-.61v-1.83h.85Z"/>
    <path class="cls-1" d="m44.01,3.5c.17-.1.37-.15.6-.15v.88h-.22c-.26,0-.46.06-.6.19-.13.12-.2.34-.2.65v1.66h-.84v-3.32h.84v.52c.11-.18.25-.31.42-.41Z"/>
    <path class="cls-1" d="m47.12,3.49c.19.1.34.23.44.38v-.47h.85v3.35c0,.31-.06.58-.19.83-.12.24-.31.43-.56.58-.25.14-.55.21-.9.21-.47,0-.86-.11-1.16-.33-.3-.22-.47-.52-.51-.9h.83c.04.15.14.27.29.36s.32.13.53.13c.24,0,.44-.07.59-.22s.23-.37.23-.66v-.52c-.11.16-.26.29-.45.39-.19.1-.41.16-.65.16-.28,0-.54-.07-.77-.22-.23-.14-.42-.35-.55-.61-.13-.26-.2-.56-.2-.9s.07-.63.2-.89c.13-.26.32-.46.55-.6s.49-.21.77-.21c.25,0,.47.05.65.15Zm.32,1.04c-.08-.15-.19-.26-.32-.34-.14-.08-.28-.12-.44-.12s-.3.04-.43.11c-.13.08-.24.19-.32.33-.08.15-.12.32-.12.52s.04.38.12.52c.08.15.19.27.32.34.13.08.28.12.43.12s.3-.04.44-.12c.14-.08.24-.19.32-.34.08-.15.12-.32.12-.52s-.04-.38-.12-.52Z"/>
    <path class="cls-1" d="m50.74,3.52c.19-.33.44-.58.76-.76.32-.18.68-.27,1.08-.27.47,0,.88.12,1.23.36.35.24.6.57.74,1h-.97c-.1-.2-.23-.35-.41-.45-.17-.1-.38-.15-.6-.15-.24,0-.46.06-.65.17-.19.11-.34.27-.44.48-.11.21-.16.45-.16.73s.05.52.16.73c.11.21.25.37.44.49.19.11.41.17.65.17.23,0,.43-.05.6-.15.17-.1.31-.25.41-.45h.97c-.14.43-.38.76-.73,1-.35.24-.76.36-1.23.36-.4,0-.76-.09-1.08-.27-.32-.18-.58-.44-.76-.76-.19-.32-.28-.69-.28-1.1s.09-.78.28-1.11Z"/>
    <path class="cls-1" d="m57.82,3.52c.2.11.35.27.46.49.11.21.17.47.17.77v1.95h-.84v-1.84c0-.26-.07-.47-.2-.61s-.31-.21-.54-.21-.42.07-.55.21-.2.34-.2.61v1.84h-.84V2.28h.84v1.53c.11-.14.25-.26.43-.34.18-.08.38-.12.6-.12.25,0,.48.06.67.17Z"/>
    <path class="cls-1" d="m62.38,3.4v3.32h-.85v-.42c-.11.14-.25.26-.42.34s-.36.12-.57.12c-.26,0-.49-.05-.69-.17-.2-.11-.36-.27-.47-.49-.11-.21-.17-.47-.17-.77v-1.95h.84v1.83c0,.26.07.47.2.61.13.14.31.21.54.21s.41-.07.55-.21c.13-.14.2-.35.2-.61v-1.83h.85Z"/>
    <path class="cls-1" d="m64.47,3.5c.17-.1.37-.15.6-.15v.88h-.22c-.26,0-.46.06-.6.19-.13.12-.2.34-.2.65v1.66h-.84v-3.32h.84v.52c.11-.18.25-.31.42-.41Z"/>
    <path class="cls-1" d="m65.62,4.16c.14-.26.33-.46.58-.6s.53-.21.85-.21c.41,0,.75.1,1.02.31.27.21.45.49.54.87h-.91c-.05-.14-.13-.26-.24-.34s-.25-.12-.42-.12c-.24,0-.43.09-.57.26-.14.17-.21.42-.21.74s.07.56.21.74c.14.17.33.26.57.26.34,0,.56-.15.67-.46h.91c-.09.36-.27.65-.55.86-.27.21-.61.32-1.02.32-.32,0-.6-.07-.85-.21-.25-.14-.44-.34-.58-.6-.14-.26-.21-.56-.21-.9s.07-.65.21-.9Z"/>
    <path class="cls-1" d="m71.78,3.52c.2.11.35.27.46.49.11.21.17.47.17.77v1.95h-.84v-1.84c0-.26-.07-.47-.2-.61s-.31-.21-.54-.21-.42.07-.55.21-.2.34-.2.61v1.84h-.84V2.28h.84v1.53c.11-.14.25-.26.43-.34.18-.08.38-.12.6-.12.25,0,.48.06.67.17Z"/>
    <path class="cls-1" d="m18.37,13.76c-.26-.14-.46-.34-.6-.6-.15-.26-.22-.56-.22-.9s.07-.64.23-.9c.15-.26.35-.46.61-.6.26-.14.55-.21.87-.21s.61.07.87.21c.26.14.46.34.61.6.15.26.23.56.23.9s-.08.64-.23.9c-.15.26-.36.46-.62.6-.26.14-.56.21-.88.21s-.61-.07-.86-.21Zm1.29-.63c.13-.07.24-.19.32-.33.08-.15.12-.33.12-.54,0-.32-.08-.56-.25-.73-.17-.17-.37-.25-.61-.25s-.44.08-.6.25c-.16.17-.24.41-.24.73s.08.56.24.73c.16.17.36.25.6.25.15,0,.29-.04.43-.11Z"/>
    <path class="cls-1" d="m23.11,11.29h-.58v2.63h-.85v-2.63h-.38v-.69h.38v-.17c0-.41.12-.71.35-.9s.58-.28,1.05-.27v.71c-.2,0-.35.03-.43.1-.08.07-.12.2-.12.39v.14h.58v.69Z"/>
    <path class="cls-1" d="m25.16,10.72c.19-.33.44-.58.76-.76.32-.18.68-.27,1.08-.27.47,0,.88.12,1.23.36.35.24.6.57.74,1h-.97c-.1-.2-.23-.35-.4-.45-.17-.1-.38-.15-.6-.15-.24,0-.46.06-.65.17-.19.11-.34.27-.44.48s-.16.45-.16.73.05.52.16.73.25.37.44.49c.19.11.41.17.65.17.23,0,.43-.05.6-.15.17-.1.31-.25.4-.45h.97c-.14.43-.38.76-.73,1-.35.24-.76.36-1.23.36-.4,0-.76-.09-1.08-.27-.32-.18-.58-.44-.76-.76-.19-.32-.28-.69-.28-1.1s.09-.78.28-1.11Z"/>
    <path class="cls-1" d="m32.24,10.72c.2.11.35.27.46.49.11.21.17.47.17.77v1.95h-.84v-1.84c0-.26-.07-.47-.2-.61s-.31-.21-.54-.21-.42.07-.55.21c-.13.14-.2.34-.2.61v1.84h-.84v-4.44h.84v1.53c.11-.14.25-.26.43-.34s.38-.12.6-.12c.25,0,.48.06.67.17Z"/>
    <path class="cls-1" d="m34.92,10.7c.17-.1.37-.15.6-.15v.88h-.22c-.26,0-.46.06-.6.19-.13.12-.2.34-.2.65v1.66h-.84v-3.32h.84v.52c.11-.18.25-.31.42-.41Z"/>
    <path class="cls-1" d="m36.14,10.06c-.1-.09-.15-.21-.15-.35s.05-.26.15-.35c.1-.09.22-.14.37-.14s.27.05.37.14c.1.09.15.21.15.35s-.05.26-.15.35c-.1.09-.22.14-.37.14s-.27-.05-.37-.14Zm.78.54v3.32h-.84v-3.32h.84Z"/>
    <path class="cls-1" d="m38.29,13.83c-.22-.1-.39-.23-.51-.4s-.19-.35-.21-.56h.85c.02.13.08.23.19.32s.25.13.41.13.28-.03.38-.1c.09-.06.13-.15.13-.25,0-.11-.06-.19-.17-.24-.11-.05-.28-.11-.52-.18-.25-.06-.45-.12-.61-.19-.16-.06-.29-.16-.41-.29-.11-.13-.17-.31-.17-.53,0-.18.05-.35.16-.5.11-.15.26-.27.46-.36.2-.09.43-.13.7-.13.4,0,.71.1.95.3.24.2.37.46.39.8h-.8c-.01-.13-.07-.24-.17-.32-.1-.08-.23-.12-.39-.12-.15,0-.27.03-.35.08s-.12.13-.12.23c0,.11.06.2.17.25.11.06.29.12.52.18.24.06.44.12.59.19.16.06.29.16.4.3.11.13.17.31.18.53,0,.19-.05.36-.16.52-.11.15-.26.27-.46.36-.2.09-.43.13-.69.13s-.52-.05-.73-.15Z"/>
    <path class="cls-1" d="m42,11.29v1.61c0,.11.03.19.08.24.05.05.15.08.27.08h.39v.71h-.53c-.71,0-1.06-.34-1.06-1.03v-1.6h-.4v-.69h.4v-.82h.85v.82h.74v.69h-.74Z"/>
  </g>
  <circle class="cls-2" cx="7.86" cy="7.86" r="7.36"/>
  <rect class="cls-3" x="7.11" y="1.99" width="1.5" height="11.75"/>
  <rect class="cls-3" x="7.23" y="2" width="1.27" height="8" transform="translate(13.86 -1.86) rotate(90)"/>
</svg>